<?xml version="1.0" encoding="UTF-8" standalone="no"?>
<!-- Generator: Gravit.io -->
<svg xmlns="http://www.w3.org/2000/svg" xmlns:xlink="http://www.w3.org/1999/xlink" style="isolation:isolate" viewBox="-2 -2 14 14" width="14pt" height="14pt"><defs><clipPath id="_clipPath_Sy4TR1r2M4H3qhoGYH2RbINYobmvg0Uz"><rect x="-2" y="-2" width="14" height="14"/></clipPath></defs><g clip-path="url(#_clipPath_Sy4TR1r2M4H3qhoGYH2RbINYobmvg0Uz)"><rect x="-2" y="-2" width="14" height="14" style="fill:rgb(98,98,98)"/><clipPath id="_clipPath_SL7WL2GQk2ZZmChedAIAIir2MKWwSIgi"><rect x="-2" y="-2" width="14" height="14" transform="matrix(1,0,0,1,0,0)" fill="rgb(255,255,255)"/></clipPath><g clip-path="url(#_clipPath_SL7WL2GQk2ZZmChedAIAIir2MKWwSIgi)"><rect x="-3.4" y="-3.4" width="16.8" height="16.8" transform="matrix(1,0,0,1,0,0)" fill="rgb(206,237,245)"/></g><g><rect x="1" y="1" width="2" height="2" transform="matrix(1,0,0,1,0,0)" fill="rgb(84,135,255)"/><rect x="4" y="7" width="2" height="2" transform="matrix(1,0,0,1,0,0)" fill="rgb(84,135,255)"/><rect x="7" y="1" width="2" height="2" transform="matrix(1,0,0,1,0,0)" fill="rgb(84,135,255)"/><path d=" M 3 5 L 3 4 L 7 4 L 7 5 L 9 5 L 9 6 L 9 8 L 7 8 L 7 6 L 3 6 L 3 8 L 1 8 L 1 5 L 3 5 Z " fill="rgb(84,135,255)"/></g></g></svg>